<?xml version="1.0" encoding="UTF-8"?>
<svg id="Layer_2" xmlns="http://www.w3.org/2000/svg" version="1.1" viewBox="0 0 841.89 595.28">
  <!-- Generator: Adobe Illustrator 29.4.0, SVG Export Plug-In . SVG Version: 2.1.0 Build 152)  -->
  <defs>
    <style>
      .st0 {
        stroke: #fff;
        stroke-miterlimit: 10;
      }

      .st0, .st1 {
        fill: #fff;
      }

      .st2 {
        fill: #231f20;
      }
    </style>
  </defs>
  <rect class="st2" x="120.71" y="98.85" width="650.29" height="522.34"/>
  <polygon class="st0" points="584.44 317.41 606.76 317.41 592.16 334.15 627.01 333.54 627.01 351.19 554.1 351.12 584.44 317.41"/>
  <polygon class="st0" points="573.74 278.81 573.74 297.64 601.03 296.7 589.03 310.99 612.26 310.99 627.01 294.9 627.01 279.35 573.74 278.81"/>
  <polygon class="st0" points="530.17 317.56 548.52 317.1 548.52 350.89 530.17 351.12 530.17 317.56"/>
  <polygon class="st0" points="508.62 279.35 568.69 278.96 569 297.64 547.83 297.64 547.98 310.99 530.1 310.99 529.87 296.7 508.62 296.93 508.62 279.35"/>
  <polygon class="st0" points="484.46 317.41 484.46 350.66 502.58 350.66 502.27 317.41 484.46 317.41"/>
  <polygon class="st0" points="484.69 279.73 502.58 279.73 502.2 311.14 484.69 311.14 484.69 279.73"/>
  <path class="st1" d="M474.72,330.21s-.11-11.04-9.63-12.8l-53.69-.42v33.86h43.68s21.42-3.27,19.64-20.64ZM451.75,334.84h-23.24v-10.01h23.24s5.35,1.07,5.12,4.66-5.12,5.35-5.12,5.35Z"/>
  <path class="st1" d="M473.46,298.76s-2.83-18.57-19.41-18.96h-42.57l-.46,31.38,55.64.34s7.8-6.65,6.8-12.76ZM455.19,301.51c-.38,4.66-5.58,4.82-5.58,4.82l-20.64.23v-10.09h20.64s5.96.38,5.58,5.04Z"/>
  <path class="st1" d="M338.4,317.6h61.57s.57,7.45-10.66,11.24l16.17,22.01h-20.98l-17.08-21.44-13.18.69.46,20.75h-16.97l.69-33.25Z"/>
  <path class="st1" d="M337.71,311.18h17.43v-13.99h19.61s10.2-.69,6.99,13.99l18.23-.8v-10.66s-3.9-19.95-21.55-19.95h-40.7v31.41Z"/>
  <path class="st1" d="M252.07,317.94h18.23s-.46,8.94,8.83,14.45c0,0,8.03,5.5,20.06,0,0,0,9.06-7.57,9.29-14.45h18.11s1.83,17.08-13.07,27.06c0,0-15.82,12.61-38.98,4.47,0,0-20.75-8.14-22.47-31.53Z"/>
  <path class="st1" d="M251.61,311.07h18.8s1.49-8.94,10.78-12.73c0,0,9.86-4.82,18.46,0,0,0,6.76,3.44,9.06,12.04s0,.69,0,.69l17.89-.23s-4.01-21.1-15.82-25.34c0,0-8.48-6.65-21.67-6.99,0,0-18,1.38-24.42,9.06,0,0-12.27,12.15-13.07,23.5Z"/>
  <path class="st1" d="M337.71,266.12h18.27s15.9-34.09,60.99-45.25c0,0,35.16-8.1,61.15,5.2l9.32-10.7s-19.11-17.73-72.61-9.48c0,0-56.87,13.61-77.12,60.23Z"/>
  <path class="st1" d="M450.91,267.65l5.2,1.83s69.25-72.61,85.61-72.76c0,0,13.76-10.7,27.36-7.49,13.61,3.21,8.56,22.17,8.56,22.17l-28.59,46.78,2.29,7.95s39.29-42.19,42.65-72c0,0,4.74-24.92-25.07-19.87-29.81,5.04-84.69,52.59-98.14,70.93l-19.87,22.47Z"/>
  <path class="st1" d="M519.7,267.65h17.58s-15.9-31.26-22.55-33.32l-10.62,10.7s13.45,15.06,15.59,22.62Z"/>
  <path class="st1" d="M383.11,264.8h-11.06s.34-12.78,27.63-25.91,52.57-9.8,52.57-9.8l5.96.57-.52,8.94s-30.61-.63-42.25,4.93c-14.27,6.82-12.5,3.84-32.33,21.27Z"/>
  <path class="st1" d="M339.09,362.54h15.48s13.41,16.97,16.28,18.69l-10.66,10.43s-20.98-21.67-21.1-29.12Z"/>
  <path class="st1" d="M428.86,362.54h-10.43s-43.11,42.19-82.78,61.22c0,0-27.4,14.79-37.38,2.29s2.18-35.08,2.18-35.08l21.32-34.28-3.32-3.1s-36.46,42.08-36.23,59.5c0,0-6.19,23.85,3.44,29.58,0,0,9.52,12.5,37.26,0s49.53-29.12,49.53-29.12c0,0,54.23-43.11,56.41-51.02Z"/>
  <path class="st1" d="M518.63,362.08h17.66s-20.52,39.67-48.84,48.27c0,0-31.87,18-72.11,8.83,0,0-20.18-4.93-22.36-8.48l12.5-10.32s43.71,12.77,67.99-.11,25.11-9.29,45.17-38.18Z"/>
  <path class="st1" d="M422.1,385.01l-.57,8.83s29.9,7.68,53.3-6.42,27.76-23.27,27.76-23.27l-9.06-4.13s-12.5,15.82-29.92,21.32-26.83,5.16-41.5,3.67Z"/>
  <path class="st1" d="M473,363.57s-9.06,15.48-35.54,13.3v-10.66"/>
</svg>